<svg xmlns="http://www.w3.org/2000/svg" version="1.1" xmlns:xlink="http://www.w3.org/1999/xlink" xmlns:svgjs="http://svgjs.dev/svgjs" width="1440" height="3560" preserveAspectRatio="none" viewBox="0 0 1440 3560"><g mask="url(&quot;#SvgjsMask1129&quot;)" fill="none"><rect width="1440" height="3560" x="0" y="0" fill="rgba(205, 175, 79, 1)"></rect><path d="M 276,-1198.6219435522657 C 451,-1056.22 1134.4,-771.42 1151,-486.6219435522658 C 1167.6,-201.82 371.4,-59.42 359,225.3780564477342 C 346.6,510.18 1081,652.58 1089,937.3780564477343 C 1097,1222.18 423.6,1364.58 399,1649.3780564477343 C 374.4,1934.18 957.8,2076.58 966,2361.3780564477343 C 974.2,2646.18 430,2833.65 440,3073.3780564477343 C 450,3313.1 900.8,3462.68 1016,3560" stroke="rgba(186, 74, 48, 1)" stroke-width="2"></path><path d="M 1304,-377.7333131595538 C 1114.4,-235.33 458.8,49.47 356,334.2666868404462 C 253.2,619.07 803.4,761.47 790,1046.2666868404463 C 776.6,1331.07 177.8,1473.47 289,1758.2666868404463 C 400.2,2043.07 1356.6,2185.47 1346,2470.2666868404463 C 1335.4,2755.07 275.4,2897.47 236,3182.2666868404463 C 196.6,3467.07 1071.2,3818.72 1149,3894.2666868404463 C 1226.8,3969.81 729.8,3626.85 625,3560" stroke="rgba(186, 74, 48, 1)" stroke-width="2"></path><path d="M 593,-604.237885470811 C 732.4,-461.84 1276.4,-177.04 1290,107.76211452918906 C 1303.6,392.56 741.4,534.96 661,819.762114529189 C 580.6,1104.56 978.6,1246.96 888,1531.7621145291891 C 797.4,1816.56 125.4,1958.96 208,2243.762114529189 C 290.6,2528.56 1274.6,2670.96 1301,2955.762114529189 C 1327.4,3240.56 382.2,3546.91 340,3667.762114529189 C 297.8,3788.61 940,3581.55 1090,3560" stroke="rgba(186, 74, 48, 1)" stroke-width="2"></path><path d="M 822,-413.0883543894913 C 750.4,-270.69 387,14.11 464,298.9116456105087 C 541,583.71 1205.8,726.11 1207,1010.9116456105087 C 1208.2,1295.71 443.2,1438.11 470,1722.9116456105087 C 496.8,2007.71 1310.8,2150.11 1341,2434.9116456105085 C 1371.2,2719.71 736.8,2862.11 621,3146.9116456105085 C 505.2,3431.71 777,3776.29 762,3858.9116456105085 C 747,3941.53 589.2,3619.78 546,3560" stroke="rgba(186, 74, 48, 1)" stroke-width="2"></path><path d="M 167,-204.2970753228396 C 287.2,-61.9 734.4,222.9 768,507.7029246771604 C 801.6,792.5 301,934.9 335,1219.7029246771604 C 369,1504.5 875.4,1646.9 938,1931.7029246771604 C 1000.6,2216.5 624,2358.9 648,2643.7029246771604 C 672,2928.5 1121.2,3070.9 1058,3355.7029246771604 C 994.8,3640.5 325.4,4026.84 332,4067.7029246771604 C 338.6,4108.56 939.2,3661.54 1091,3560" stroke="rgba(186, 74, 48, 1)" stroke-width="2"></path><path d="M 812,-778.3741128199179 C 720.8,-635.97 251.4,-351.17 356,-66.3741128199179 C 460.6,218.43 1338.4,360.83 1335,645.6258871800821 C 1331.6,930.43 388.4,1072.83 339,1357.6258871800821 C 289.6,1642.43 1019.8,1784.83 1088,2069.625887180082 C 1156.2,2354.43 702.4,2496.83 680,2781.625887180082 C 657.6,3066.43 982.2,3337.95 976,3493.625887180082 C 969.8,3649.3 714.4,3546.73 649,3560" stroke="rgba(186, 74, 48, 1)" stroke-width="2"></path></g><defs><mask id="SvgjsMask1129"><rect width="1440" height="3560" fill="#ffffff"></rect></mask></defs></svg>