<svg xmlns="http://www.w3.org/2000/svg" version="1.1" xmlns:xlink="http://www.w3.org/1999/xlink" xmlns:svgjs="http://svgjs.dev/svgjs" width="500" height="1960" preserveAspectRatio="none" viewBox="0 0 500 1960"><g mask="url(&quot;#SvgjsMask1012&quot;)" fill="none"><rect width="500" height="1960" x="0" y="0" fill="rgba(222, 183, 54, 1)"></rect><path d="M 53,-580.4967796856251 C 102.6,-449.7 290.8,-188.1 301,73.50322031437484 C 311.2,335.1 88,465.9 104,727.5032203143749 C 120,989.1 352,1119.9 381,1381.5032203143749 C 410,1643.1 249.2,1919.8 249,2035.5032203143749 C 248.8,2151.2 353.8,1975.1 380,1960" stroke="rgba(188, 86, 51, 1)" stroke-width="2"></path><path d="M 105,-822.65231589824 C 144.4,-691.85 294.8,-430.25 302,-168.65231589823995 C 309.2,92.95 123.8,223.75 141,485.34768410176 C 158.2,746.95 401.4,877.75 388,1139.34768410176 C 374.6,1400.95 98.8,1629.22 74,1793.34768410176 C 49.2,1957.48 226,1926.67 264,1960" stroke="rgba(188, 86, 51, 1)" stroke-width="2"></path><path d="M 387,-1134.073497068301 C 349.2,-1003.27 209.2,-741.67 198,-480.07349706830115 C 186.8,-218.47 326.2,-87.67 331,173.92650293169885 C 335.8,435.53 203.2,566.33 222,827.9265029316989 C 240.8,1089.53 438,1255.51 425,1481.926502931699 C 412,1708.34 210.6,1864.39 157,1960" stroke="rgba(188, 86, 51, 1)" stroke-width="2"></path><path d="M 218,-131.82534029764724 C 263.8,-1.03 443,260.57 447,522.1746597023528 C 451,783.77 266.2,914.57 238,1176.1746597023528 C 209.8,1437.77 311.6,1568.57 306,1830.1746597023528 C 300.4,2091.77 189.6,2458.21 210,2484.174659702353 C 230.4,2510.14 368.4,2064.83 408,1960" stroke="rgba(188, 86, 51, 1)" stroke-width="2"></path><path d="M 261,-290.83444983888165 C 249,-160.03 178.6,101.57 201,363.16555016111835 C 223.4,624.77 388.8,755.57 373,1017.1655501611183 C 357.2,1278.77 119.2,1409.57 122,1671.1655501611183 C 124.8,1932.77 389.8,2267.4 387,2325.1655501611185 C 384.2,2382.93 163.8,2033.03 108,1960" stroke="rgba(188, 86, 51, 1)" stroke-width="2"></path></g><defs><mask id="SvgjsMask1012"><rect width="500" height="1960" fill="#ffffff"></rect></mask></defs></svg>