<svg xmlns="http://www.w3.org/2000/svg" version="1.1" xmlns:xlink="http://www.w3.org/1999/xlink" xmlns:svgjs="http://svgjs.dev/svgjs" width="1211" height="1960" preserveAspectRatio="none" viewBox="0 0 1211 1960"><g mask="url(&quot;#SvgjsMask1331&quot;)" fill="none"><rect width="1211" height="1960" x="0" y="0" fill="rgba(200, 168, 63, 1)"></rect><path d="M 822.5,-1669.1784490077812 C 717.5,-1473.18 335.5,-1081.18 297.5,-689.1784490077812 C 259.5,-297.18 632.5,-101.18 632.5,290.8215509922188 C 632.5,682.82 247.5,936.99 297.5,1270.8215509922188 C 347.5,1604.66 765.5,1822.16 882.5,1960" stroke="rgba(186, 74, 48, 1)" stroke-width="2"></path><path d="M 716.5,-130.0307548886924 C 691.3,65.97 587.1,457.97 590.5,849.9692451113076 C 593.9,1241.97 791.5,1437.97 733.5,1829.9692451113076 C 675.5,2221.97 283.7,2783.96 300.5,2809.969245111308 C 317.3,2835.98 714.1,2129.99 817.5,1960" stroke="rgba(186, 74, 48, 1)" stroke-width="2"></path><path d="M 334.5,-899.4622781261924 C 406.1,-703.46 694.3,-311.46 692.5,80.53772187380758 C 690.7,472.54 287.9,668.54 325.5,1060.5377218738076 C 363.1,1452.54 860.9,1860.65 880.5,2040.5377218738076 C 900.1,2220.43 514.9,1976.11 423.5,1960" stroke="rgba(186, 74, 48, 1)" stroke-width="2"></path><path d="M 442.5,-1574.1946241083274 C 487.7,-1378.19 692.1,-986.19 668.5,-594.1946241083275 C 644.9,-202.19 295.9,-6.19 324.5,385.8053758916725 C 353.1,777.81 769.5,1050.97 811.5,1365.8053758916726 C 853.5,1680.64 589.9,1841.16 534.5,1960" stroke="rgba(186, 74, 48, 1)" stroke-width="2"></path><path d="M 802.5,-1806.9095771427833 C 729.1,-1610.91 415.1,-1218.91 435.5,-826.9095771427833 C 455.9,-434.91 879.1,-238.91 904.5,153.0904228572167 C 929.9,545.09 598.7,771.71 562.5,1133.0904228572167 C 526.3,1494.47 691.3,1794.62 723.5,1960" stroke="rgba(186, 74, 48, 1)" stroke-width="2"></path><path d="M 779.5,-714.6617858111358 C 701.3,-518.66 408.1,-126.66 388.5,265.33821418886424 C 368.9,657.34 696.3,853.34 681.5,1245.3382141888642 C 666.7,1637.34 282.3,2082.41 314.5,2225.338214188864 C 346.7,2368.27 736.9,2013.07 842.5,1960" stroke="rgba(186, 74, 48, 1)" stroke-width="2"></path></g><defs><mask id="SvgjsMask1331"><rect width="1211" height="1960" fill="#ffffff"></rect></mask></defs></svg>