<svg xmlns="http://www.w3.org/2000/svg" version="1.1" xmlns:xlink="http://www.w3.org/1999/xlink" xmlns:svgjs="http://svgjs.dev/svgjs" width="1211" height="1960" preserveAspectRatio="none" viewBox="0 0 1211 1960"><g mask="url(&quot;#SvgjsMask1002&quot;)" fill="none"><rect width="1211" height="1960" x="0" y="0" fill="rgba(86, 144, 253, 1)"></rect><path d="M 947.5,-760.8757597135755 C 810.9,-630.08 252.9,-368.48 264.5,-106.87575971357552 C 276.1,154.72 1027.3,285.52 1005.5,547.1242402864245 C 983.7,808.72 210.1,939.52 155.5,1201.1242402864245 C 100.9,1462.72 651.7,1703.35 732.5,1855.1242402864245 C 813.3,2006.9 594.1,1939.02 559.5,1960" stroke="rgba(18, 49, 108, 1)" stroke-width="2"></path><path d="M 1030.5,-821.083695471543 C 940.5,-690.28 591.3,-428.68 580.5,-167.083695471543 C 569.7,94.52 1045.9,225.32 976.5,486.916304528457 C 907.1,748.52 284.5,879.32 233.5,1140.916304528457 C 182.5,1402.52 692.1,1631.1 721.5,1794.916304528457 C 750.9,1958.73 448.7,1926.98 380.5,1960" stroke="rgba(18, 49, 108, 1)" stroke-width="2"></path><path d="M 365.5,-1182.02662329589 C 473.1,-1051.23 867.1,-789.63 903.5,-528.02662329589 C 939.9,-266.43 563.5,-135.63 547.5,125.97337670411002 C 531.5,387.57 824.7,518.37 823.5,779.97337670411 C 822.3,1041.57 531.9,1197.97 541.5,1433.97337670411 C 551.1,1669.98 805.5,1854.79 871.5,1960" stroke="rgba(18, 49, 108, 1)" stroke-width="2"></path><path d="M 525.5,-592.797371908962 C 616.1,-462 1032.5,-200.4 978.5,61.20262809103799 C 924.5,322.8 329.1,453.6 255.5,715.202628091038 C 181.9,976.8 543.1,1107.6 610.5,1369.202628091038 C 677.9,1630.8 540.5,1905.04 592.5,2023.202628091038 C 644.5,2141.36 814.9,1972.64 870.5,1960" stroke="rgba(18, 49, 108, 1)" stroke-width="2"></path><path d="M 863.5,-614.2366898472732 C 725.9,-483.44 192.5,-221.84 175.5,39.76331015272679 C 158.5,301.36 721.7,432.16 778.5,693.7633101527268 C 835.3,955.36 489.5,1086.16 459.5,1347.7633101527267 C 429.5,1609.36 622.5,1879.32 628.5,2001.7633101527267 C 634.5,2124.21 517.3,1968.35 489.5,1960" stroke="rgba(18, 49, 108, 1)" stroke-width="2"></path><path d="M 730.5,-792.4289216216356 C 628.1,-661.63 147.7,-400.03 218.5,-138.42892162163557 C 289.3,123.17 1038.1,253.97 1084.5,515.5710783783644 C 1130.9,777.17 491.1,907.97 450.5,1169.5710783783645 C 409.9,1431.17 857.9,1665.49 881.5,1823.5710783783645 C 905.1,1981.66 631.1,1932.71 568.5,1960" stroke="rgba(18, 49, 108, 1)" stroke-width="2"></path><path d="M 854.5,-781.7925243753986 C 794.3,-650.99 542.1,-389.39 553.5,-127.79252437539857 C 564.9,133.81 905.7,264.61 911.5,526.2074756246014 C 917.3,787.81 572.5,918.61 582.5,1180.2074756246013 C 592.5,1441.81 1053.1,1678.25 961.5,1834.2074756246013 C 869.9,1990.17 291.9,1934.84 124.5,1960" stroke="rgba(18, 49, 108, 1)" stroke-width="2"></path></g><defs><mask id="SvgjsMask1002"><rect width="1211" height="1960" fill="#ffffff"></rect></mask></defs></svg>