<svg xmlns="http://www.w3.org/2000/svg" version="1.1" xmlns:xlink="http://www.w3.org/1999/xlink" xmlns:svgjs="http://svgjs.dev/svgjs" width="1211" height="2960" preserveAspectRatio="none" viewBox="0 0 1211 2960"><g mask="url(&quot;#SvgjsMask1033&quot;)" fill="none"><rect width="1211" height="2960" x="0" y="0" fill="rgba(86, 144, 253, 1)"></rect><path d="M 411.5,-1444.5225106644875 C 473.9,-1247.12 732.3,-852.32 723.5,-457.5225106644876 C 714.7,-62.72 345.1,134.68 367.5,529.4774893355125 C 389.9,924.28 828.5,1121.68 835.5,1516.4774893355125 C 842.5,1911.28 427.9,2214.77 402.5,2503.4774893355125 C 377.1,2792.18 647.3,2868.7 708.5,2960" stroke="rgba(18, 49, 108, 1)" stroke-width="2"></path><path d="M 1076.5,-909.6447335218749 C 889.5,-712.24 184.9,-317.44 141.5,77.35526647812515 C 98.1,472.16 861.7,669.56 859.5,1064.355266478125 C 857.3,1459.16 168.5,1656.56 130.5,2051.355266478125 C 92.5,2446.16 641.3,2856.63 669.5,3038.355266478125 C 697.7,3220.08 351.1,2975.67 271.5,2960" stroke="rgba(18, 49, 108, 1)" stroke-width="2"></path><path d="M 924.5,-1641.6205047814738 C 859.9,-1444.22 650.5,-1049.42 601.5,-654.6205047814738 C 552.5,-259.82 775.1,-62.42 679.5,332.37949521852624 C 583.9,727.18 122.7,924.58 123.5,1319.3794952185262 C 124.3,1714.18 589.5,1978.26 683.5,2306.3794952185262 C 777.5,2634.5 611.5,2829.28 593.5,2960" stroke="rgba(18, 49, 108, 1)" stroke-width="2"></path><path d="M 451.5,-1721.8090525638218 C 526.1,-1524.41 827.9,-1129.61 824.5,-734.8090525638216 C 821.1,-340.01 466.1,-142.61 434.5,252.19094743617836 C 402.9,646.99 641.9,844.39 666.5,1239.1909474361782 C 691.1,1633.99 539.9,1882.03 557.5,2226.1909474361782 C 575.1,2570.35 715.1,2813.24 754.5,2960" stroke="rgba(18, 49, 108, 1)" stroke-width="2"></path><path d="M 968.5,-427.1130228617434 C 860.1,-229.71 404.9,165.09 426.5,559.8869771382566 C 448.1,954.69 1061.1,1152.09 1076.5,1546.8869771382565 C 1091.9,1941.69 563.9,2139.09 503.5,2533.8869771382565 C 443.1,2928.69 833.7,3435.66 774.5,3520.8869771382565 C 715.3,3606.11 320.9,3072.18 207.5,2960" stroke="rgba(18, 49, 108, 1)" stroke-width="2"></path><path d="M 611.5,-1555.2611461066342 C 514.1,-1357.86 104.1,-963.06 124.5,-568.2611461066342 C 144.9,-173.46 628.3,23.94 713.5,418.7388538933658 C 798.7,813.54 519.1,1010.94 550.5,1405.7388538933658 C 581.9,1800.54 938.9,2081.89 870.5,2392.7388538933656 C 802.1,2703.59 340.9,2846.55 208.5,2960" stroke="rgba(18, 49, 108, 1)" stroke-width="2"></path><path d="M 1027.5,-1932.8777944789047 C 876.1,-1735.48 276.5,-1340.68 270.5,-945.8777944789047 C 264.5,-551.08 1003.3,-353.68 997.5,41.12220552109534 C 991.7,435.92 259.5,633.32 241.5,1028.1222055210953 C 223.5,1422.92 872.7,1628.75 907.5,2015.1222055210953 C 942.3,2401.5 513.9,2771.02 415.5,2960" stroke="rgba(18, 49, 108, 1)" stroke-width="2"></path></g><defs><mask id="SvgjsMask1033"><rect width="1211" height="2960" fill="#ffffff"></rect></mask></defs></svg>