<svg xmlns="http://www.w3.org/2000/svg" version="1.1" xmlns:xlink="http://www.w3.org/1999/xlink" xmlns:svgjs="http://svgjs.dev/svgjs" width="1211" height="2960" preserveAspectRatio="none" viewBox="0 0 1211 2960"><g mask="url(&quot;#SvgjsMask1034&quot;)" fill="none"><rect width="1211" height="2960" x="0" y="0" fill="rgba(86, 144, 253, 1)"></rect><path d="M 266.5,-212.76160901572462 C 335.7,-15.36 620.9,379.44 612.5,774.2383909842754 C 604.1,1169.04 148.3,1366.44 224.5,1761.2383909842754 C 300.7,2156.04 989.7,2353.44 993.5,2748.2383909842756 C 997.3,3143.04 237.7,3692.89 243.5,3735.2383909842756 C 249.3,3777.59 866.7,3115.05 1022.5,2960" stroke="rgba(18, 49, 108, 1)" stroke-width="2"></path><path d="M 569.5,-1720.9261014821632 C 641.5,-1523.53 958.1,-1128.73 929.5,-733.9261014821633 C 900.9,-339.13 405.1,-141.73 426.5,253.0738985178367 C 447.9,647.87 1012.5,845.27 1036.5,1240.0738985178368 C 1060.5,1634.87 536.7,1883.09 546.5,2227.073898517837 C 556.3,2571.06 977.7,2813.41 1085.5,2960" stroke="rgba(18, 49, 108, 1)" stroke-width="2"></path><path d="M 457.5,-852.6972445077629 C 572.5,-655.3 1022.3,-260.5 1032.5,134.30275549223714 C 1042.7,529.1 569.3,726.5 508.5,1121.302755492237 C 447.7,1516.1 802.9,1713.5 728.5,2108.3027554922373 C 654.1,2503.1 79.1,2924.96 136.5,3095.3027554922373 C 193.9,3265.64 839.7,2987.06 1015.5,2960" stroke="rgba(18, 49, 108, 1)" stroke-width="2"></path><path d="M 128.5,-416.798339141733 C 252.9,-219.4 719.1,175.4 750.5,570.201660858267 C 781.9,965 306.9,1162.4 285.5,1557.2016608582671 C 264.1,1952 591.7,2149.4 643.5,2544.201660858267 C 695.3,2939 466.1,3448.04 544.5,3531.201660858267 C 622.9,3614.36 937.3,3074.24 1035.5,2960" stroke="rgba(18, 49, 108, 1)" stroke-width="2"></path><path d="M 1031.5,-371.01817643476136 C 870.5,-173.62 242.3,221.18 226.5,615.9818235652386 C 210.7,1010.78 891.9,1208.18 952.5,1602.9818235652388 C 1013.1,1997.78 591.5,2195.18 529.5,2589.9818235652388 C 467.5,2984.78 638.1,3502.98 642.5,3576.9818235652388 C 646.9,3650.99 569.7,3083.4 551.5,2960" stroke="rgba(18, 49, 108, 1)" stroke-width="2"></path><path d="M 919.5,-1078.4059503076762 C 763.1,-881.01 172.7,-486.21 137.5,-91.40595030767618 C 102.3,303.39 705.9,500.79 743.5,895.5940496923238 C 781.1,1290.39 321.3,1487.79 325.5,1882.5940496923238 C 329.7,2277.39 708.9,2654.11 764.5,2869.594049692324 C 820.1,3085.08 635.7,2941.92 603.5,2960" stroke="rgba(18, 49, 108, 1)" stroke-width="2"></path><path d="M 247.5,-109.73490579075815 C 384.3,87.67 884.7,482.47 931.5,877.2650942092419 C 978.3,1272.07 457.9,1469.47 481.5,1864.2650942092419 C 505.1,2259.07 1052.3,2456.47 1049.5,2851.265094209242 C 1046.7,3246.07 466.3,3816.52 467.5,3838.265094209242 C 468.7,3860.01 937.9,3135.65 1055.5,2960" stroke="rgba(18, 49, 108, 1)" stroke-width="2"></path></g><defs><mask id="SvgjsMask1034"><rect width="1211" height="2960" fill="#ffffff"></rect></mask></defs></svg>