<svg xmlns="http://www.w3.org/2000/svg" version="1.1" xmlns:xlink="http://www.w3.org/1999/xlink" xmlns:svgjs="http://svgjs.dev/svgjs" width="1211" height="1960" preserveAspectRatio="none" viewBox="0 0 1211 1960"><g mask="url(&quot;#SvgjsMask1013&quot;)" fill="none"><rect width="1211" height="1960" x="0" y="0" fill="rgba(86, 144, 253, 1)"></rect><path d="M 574.5,-339.26885823519234 C 636.9,-241.27 881.5,-45.27 886.5,150.73114176480766 C 891.5,346.73 636.3,444.73 599.5,640.7311417648077 C 562.7,836.73 745.9,934.73 702.5,1130.7311417648077 C 659.1,1326.73 345.5,1424.73 382.5,1620.7311417648077 C 419.5,1816.73 873.3,2042.88 887.5,2110.7311417648075 C 901.7,2178.58 540.3,1990.15 453.5,1960" stroke="rgba(18, 49, 108, 1)" stroke-width="2"></path><path d="M 507.5,-649.6256885696911 C 585.9,-551.63 906.5,-355.63 899.5,-159.62568856969105 C 892.5,36.37 485.7,134.37 472.5,330.3743114303089 C 459.3,526.37 864.5,624.37 833.5,820.3743114303089 C 802.5,1016.37 355.9,1114.37 317.5,1310.374311430309 C 279.1,1506.37 625.3,1670.45 641.5,1800.374311430309 C 657.7,1930.3 447.1,1928.07 398.5,1960" stroke="rgba(18, 49, 108, 1)" stroke-width="2"></path><path d="M 613.5,-434.21325589621443 C 574.1,-336.21 414.1,-140.21 416.5,55.786744103785544 C 418.9,251.79 630.9,349.79 625.5,545.7867441037855 C 620.1,741.79 364.5,839.79 389.5,1035.7867441037856 C 414.5,1231.79 759.7,1329.79 750.5,1525.7867441037856 C 741.3,1721.79 313.3,1928.94 343.5,2015.7867441037856 C 373.7,2102.63 789.9,1971.16 901.5,1960" stroke="rgba(18, 49, 108, 1)" stroke-width="2"></path><path d="M 622.5,-492.28102626523935 C 572.7,-394.28 356.3,-198.28 373.5,-2.2810262652393543 C 390.7,193.72 691.7,291.72 708.5,487.71897373476065 C 725.3,683.72 447.3,781.72 457.5,977.7189737347607 C 467.7,1173.72 786.1,1271.72 759.5,1467.7189737347605 C 732.9,1663.72 332.3,1859.26 324.5,1957.7189737347605 C 316.7,2056.18 641.3,1959.54 720.5,1960" stroke="rgba(18, 49, 108, 1)" stroke-width="2"></path><path d="M 459.5,-173.33378594771415 C 522.7,-75.33 794.7,120.67 775.5,316.66621405228585 C 756.3,512.67 379.1,610.67 363.5,806.6662140522858 C 347.9,1002.67 650.3,1100.67 697.5,1296.6662140522858 C 744.7,1492.67 584.7,1590.67 599.5,1786.6662140522858 C 614.3,1982.67 810.3,2242 771.5,2276.666214052286 C 732.7,2311.33 478.7,2023.33 405.5,1960" stroke="rgba(18, 49, 108, 1)" stroke-width="2"></path><path d="M 854.5,-702.9867654992476 C 785.7,-604.99 549.3,-408.99 510.5,-212.98676549924753 C 471.7,-16.99 675.7,81.01 660.5,277.01323450075245 C 645.3,473.01 419.3,571.01 434.5,767.0132345007524 C 449.7,963.01 732.9,1061.01 736.5,1257.0132345007526 C 740.1,1453.01 458.1,1606.42 452.5,1747.0132345007526 C 446.9,1887.61 657.3,1917.4 708.5,1960" stroke="rgba(18, 49, 108, 1)" stroke-width="2"></path><path d="M 647.5,-423.81485150787506 C 615.9,-325.81 487.3,-129.81 489.5,66.18514849212492 C 491.7,262.19 654.5,360.19 658.5,556.1851484921249 C 662.5,752.19 486.1,850.19 509.5,1046.1851484921249 C 532.9,1242.19 770.5,1340.19 775.5,1536.1851484921249 C 780.5,1732.19 553.5,1941.42 534.5,2026.1851484921249 C 515.5,2110.95 651.3,1973.24 680.5,1960" stroke="rgba(18, 49, 108, 1)" stroke-width="2"></path></g><defs><mask id="SvgjsMask1013"><rect width="1211" height="1960" fill="#ffffff"></rect></mask></defs></svg>