<svg xmlns="http://www.w3.org/2000/svg" version="1.1" xmlns:xlink="http://www.w3.org/1999/xlink" xmlns:svgjs="http://svgjs.dev/svgjs" width="1211" height="3960" preserveAspectRatio="none" viewBox="0 0 1211 3960"><g mask="url(&quot;#SvgjsMask1036&quot;)" fill="none"><rect width="1211" height="3960" x="0" y="0" fill="rgba(86, 144, 253, 1)"></rect><path d="M 1039.5,-2528.207957475045 C 862.5,-2264.21 205.1,-1736.21 154.5,-1208.2079574750453 C 103.9,-680.21 773.5,-416.21 786.5,111.7920425249547 C 799.5,639.79 243.9,903.79 219.5,1431.7920425249547 C 195.1,1959.79 609.1,2246.15 664.5,2751.792042524955 C 719.9,3257.43 530.1,3718.36 496.5,3960" stroke="rgba(18, 49, 108, 1)" stroke-width="2"></path><path d="M 732.5,-1994.9876854465144 C 611.5,-1730.99 149.9,-1202.99 127.5,-674.9876854465144 C 105.1,-146.99 586.3,117.01 620.5,645.0123145534856 C 654.7,1173.01 282.9,1437.01 298.5,1965.0123145534856 C 314.1,2493.01 639.9,2886.01 698.5,3285.0123145534853 C 757.1,3684.01 612.9,3825 591.5,3960" stroke="rgba(18, 49, 108, 1)" stroke-width="2"></path><path d="M 1084.5,-784.034887936068 C 973.3,-520.03 533.5,7.97 528.5,535.965112063932 C 523.5,1063.97 1099.5,1327.97 1059.5,1855.9651120639319 C 1019.5,2383.97 326.3,2647.97 328.5,3175.965112063932 C 330.7,3703.97 1107.1,4339.16 1070.5,4495.965112063932 C 1033.9,4652.77 330.5,4067.19 145.5,3960" stroke="rgba(18, 49, 108, 1)" stroke-width="2"></path><path d="M 149.5,-2161.643166162709 C 264.7,-1897.64 714.1,-1369.64 725.5,-841.643166162709 C 736.9,-313.64 161.1,-49.64 206.5,478.356833837291 C 251.9,1006.36 896.1,1270.36 952.5,1798.356833837291 C 1008.9,2326.36 535.1,2686.03 488.5,3118.356833837291 C 441.9,3550.69 673.3,3791.67 719.5,3960" stroke="rgba(18, 49, 108, 1)" stroke-width="2"></path><path d="M 459.5,-1747.813443033891 C 583.3,-1483.81 1128.3,-955.81 1078.5,-427.8134430338911 C 1028.7,100.19 265.3,364.19 210.5,892.1865569661089 C 155.7,1420.19 780.3,1684.19 804.5,2212.186556966109 C 828.7,2740.19 364.9,3182.62 331.5,3532.186556966109 C 298.1,3881.75 576.3,3874.44 637.5,3960" stroke="rgba(18, 49, 108, 1)" stroke-width="2"></path><path d="M 1043.5,-2053.8077829490917 C 938.1,-1789.81 516.9,-1261.81 516.5,-733.8077829490917 C 516.1,-205.81 1072.5,58.19 1041.5,586.1922170509083 C 1010.5,1114.19 404.7,1378.19 361.5,1906.1922170509083 C 318.3,2434.19 852.1,2815.43 825.5,3226.1922170509083 C 798.9,3636.95 347.9,3813.24 228.5,3960" stroke="rgba(18, 49, 108, 1)" stroke-width="2"></path><path d="M 339.5,-2565.036181520809 C 457.1,-2301.04 894.7,-1773.04 927.5,-1245.0361815208091 C 960.3,-717.04 476.1,-453.04 503.5,74.96381847919088 C 530.9,602.96 1098.1,866.96 1064.5,1394.9638184791909 C 1030.9,1922.96 401.5,2201.96 335.5,2714.963818479191 C 269.5,3227.97 654.7,3710.99 734.5,3960" stroke="rgba(18, 49, 108, 1)" stroke-width="2"></path></g><defs><mask id="SvgjsMask1036"><rect width="1211" height="3960" fill="#ffffff"></rect></mask></defs></svg>