<svg xmlns="http://www.w3.org/2000/svg" version="1.1" xmlns:xlink="http://www.w3.org/1999/xlink" xmlns:svgjs="http://svgjs.dev/svgjs" width="1440" height="560" preserveAspectRatio="none" viewBox="0 0 1440 560"><g mask="url(&quot;#SvgjsMask1051&quot;)" fill="none"><rect width="1440" height="560" x="0" y="0" fill="rgba(141, 166, 193, 1)"></rect><path d="M848 181L847 562" stroke-width="6" stroke="url(&quot;#SvgjsLinearGradient1052&quot;)" stroke-linecap="round" class="Down"></path><path d="M1359 148L1358 -57" stroke-width="8" stroke="url(&quot;#SvgjsLinearGradient1053&quot;)" stroke-linecap="round" class="Up"></path><path d="M1254 486L1253 876" stroke-width="6" stroke="url(&quot;#SvgjsLinearGradient1052&quot;)" stroke-linecap="round" class="Down"></path><path d="M66 445L65 261" stroke-width="8" stroke="url(&quot;#SvgjsLinearGradient1053&quot;)" stroke-linecap="round" class="Up"></path><path d="M1379 304L1378 -107" stroke-width="10" stroke="url(&quot;#SvgjsLinearGradient1053&quot;)" stroke-linecap="round" class="Up"></path><path d="M1143 303L1142 -44" stroke-width="8" stroke="url(&quot;#SvgjsLinearGradient1053&quot;)" stroke-linecap="round" class="Up"></path><path d="M527 445L526 66" stroke-width="10" stroke="url(&quot;#SvgjsLinearGradient1052&quot;)" stroke-linecap="round" class="Down"></path><path d="M782 390L781 777" stroke-width="10" stroke="url(&quot;#SvgjsLinearGradient1053&quot;)" stroke-linecap="round" class="Up"></path><path d="M737 522L736 168" stroke-width="8" stroke="url(&quot;#SvgjsLinearGradient1052&quot;)" stroke-linecap="round" class="Down"></path><path d="M242 287L241 101" stroke-width="6" stroke="url(&quot;#SvgjsLinearGradient1053&quot;)" stroke-linecap="round" class="Up"></path><path d="M168 3L167 -306" stroke-width="8" stroke="url(&quot;#SvgjsLinearGradient1053&quot;)" stroke-linecap="round" class="Up"></path><path d="M1028 44L1027 -114" stroke-width="6" stroke="url(&quot;#SvgjsLinearGradient1053&quot;)" stroke-linecap="round" class="Up"></path><path d="M1038 387L1037 207" stroke-width="10" stroke="url(&quot;#SvgjsLinearGradient1053&quot;)" stroke-linecap="round" class="Up"></path><path d="M169 179L168 -167" stroke-width="8" stroke="url(&quot;#SvgjsLinearGradient1053&quot;)" stroke-linecap="round" class="Up"></path><path d="M233 145L232 -16" stroke-width="8" stroke="url(&quot;#SvgjsLinearGradient1053&quot;)" stroke-linecap="round" class="Up"></path><path d="M306 345L305 167" stroke-width="8" stroke="url(&quot;#SvgjsLinearGradient1052&quot;)" stroke-linecap="round" class="Down"></path><path d="M862 509L861 102" stroke-width="6" stroke="url(&quot;#SvgjsLinearGradient1053&quot;)" stroke-linecap="round" class="Up"></path><path d="M879 474L878 782" stroke-width="6" stroke="url(&quot;#SvgjsLinearGradient1053&quot;)" stroke-linecap="round" class="Up"></path><path d="M481 328L480 77" stroke-width="6" stroke="url(&quot;#SvgjsLinearGradient1053&quot;)" stroke-linecap="round" class="Up"></path><path d="M586 545L585 906" stroke-width="8" stroke="url(&quot;#SvgjsLinearGradient1053&quot;)" stroke-linecap="round" class="Up"></path><path d="M757 135L756 523" stroke-width="8" stroke="url(&quot;#SvgjsLinearGradient1052&quot;)" stroke-linecap="round" class="Down"></path><path d="M649 238L648 387" stroke-width="10" stroke="url(&quot;#SvgjsLinearGradient1053&quot;)" stroke-linecap="round" class="Up"></path><path d="M424 166L423 -100" stroke-width="8" stroke="url(&quot;#SvgjsLinearGradient1053&quot;)" stroke-linecap="round" class="Up"></path><path d="M374 146L373 359" stroke-width="10" stroke="url(&quot;#SvgjsLinearGradient1053&quot;)" stroke-linecap="round" class="Up"></path><path d="M194 378L193 785" stroke-width="6" stroke="url(&quot;#SvgjsLinearGradient1052&quot;)" stroke-linecap="round" class="Down"></path><path d="M71 447L70 598" stroke-width="6" stroke="url(&quot;#SvgjsLinearGradient1052&quot;)" stroke-linecap="round" class="Down"></path><path d="M1140 33L1139 354" stroke-width="6" stroke="url(&quot;#SvgjsLinearGradient1052&quot;)" stroke-linecap="round" class="Down"></path><path d="M1338 19L1337 353" stroke-width="10" stroke="url(&quot;#SvgjsLinearGradient1052&quot;)" stroke-linecap="round" class="Down"></path><path d="M1315 390L1314 15" stroke-width="8" stroke="url(&quot;#SvgjsLinearGradient1053&quot;)" stroke-linecap="round" class="Up"></path><path d="M480 254L479 530" stroke-width="6" stroke="url(&quot;#SvgjsLinearGradient1052&quot;)" stroke-linecap="round" class="Down"></path><path d="M605 430L604 630" stroke-width="8" stroke="url(&quot;#SvgjsLinearGradient1052&quot;)" stroke-linecap="round" class="Down"></path><path d="M45 17L44 -359" stroke-width="8" stroke="url(&quot;#SvgjsLinearGradient1052&quot;)" stroke-linecap="round" class="Down"></path><path d="M1053 125L1052 -286" stroke-width="6" stroke="url(&quot;#SvgjsLinearGradient1053&quot;)" stroke-linecap="round" class="Up"></path><path d="M180 135L179 -33" stroke-width="6" stroke="url(&quot;#SvgjsLinearGradient1052&quot;)" stroke-linecap="round" class="Down"></path><path d="M1397 469L1396 792" stroke-width="8" stroke="url(&quot;#SvgjsLinearGradient1053&quot;)" stroke-linecap="round" class="Up"></path><path d="M604 24L603 -353" stroke-width="10" stroke="url(&quot;#SvgjsLinearGradient1052&quot;)" stroke-linecap="round" class="Down"></path></g><defs><mask id="SvgjsMask1051"><rect width="1440" height="560" fill="#ffffff"></rect></mask><linearGradient x1="0%" y1="0%" x2="0%" y2="100%" id="SvgjsLinearGradient1052"><stop stop-color="rgba(212, 62, 62, 0)" offset="0"></stop><stop stop-color="rgba(212, 62, 62, 0.49)" offset="1"></stop></linearGradient><linearGradient x1="0%" y1="100%" x2="0%" y2="0%" id="SvgjsLinearGradient1053"><stop stop-color="rgba(212, 62, 62, 0)" offset="0"></stop><stop stop-color="rgba(212, 62, 62, 0.49)" offset="1"></stop></linearGradient></defs></svg>