<svg xmlns="http://www.w3.org/2000/svg" version="1.1" xmlns:xlink="http://www.w3.org/1999/xlink" xmlns:svgjs="http://svgjs.dev/svgjs" width="1260" height="2960" preserveAspectRatio="none" viewBox="0 0 1260 2960"><g mask="url(&quot;#SvgjsMask1049&quot;)" fill="none"><rect width="1260" height="2960" x="0" y="0" fill="rgba(61, 117, 48, 1)"></rect><path d="M 604,-94.1775810975953 C 694.6,53.82 1103.8,349.82 1057,645.8224189024047 C 1010.2,941.82 365.8,1089.82 370,1385.8224189024047 C 374.2,1681.82 1108.2,1829.82 1078,2125.822418902405 C 1047.8,2421.82 289,2569.82 219,2865.822418902405 C 149,3161.82 670.6,3586.99 728,3605.822418902405 C 785.4,3624.66 550.4,3089.16 506,2960" stroke="rgba(126, 199, 139, 1)" stroke-width="2"></path><path d="M 183,-93.83248675686957 C 303.2,54.17 792.6,350.17 784,646.1675132431304 C 775.4,942.17 130.6,1090.17 140,1386.1675132431305 C 149.4,1682.17 795.8,1830.17 831,2126.1675132431305 C 866.2,2422.17 269.2,2570.17 316,2866.1675132431305 C 362.8,3162.17 1044.4,3587.4 1065,3606.1675132431305 C 1085.6,3624.93 548.2,3089.23 419,2960" stroke="rgba(126, 199, 139, 1)" stroke-width="2"></path><path d="M 1059,-297.8798734656811 C 967,-149.88 643.8,146.12 599,442.1201265343189 C 554.2,738.12 901.2,886.12 835,1182.1201265343188 C 768.8,1478.12 209.8,1626.12 268,1922.1201265343188 C 326.2,2218.12 1139,2366.12 1126,2662.120126534319 C 1113,2958.12 216,3342.54 203,3402.120126534319 C 190,3461.7 889.4,3048.42 1061,2960" stroke="rgba(126, 199, 139, 1)" stroke-width="2"></path><path d="M 1089,-465.7490657022728 C 923.8,-317.75 317.4,-21.75 263,274.2509342977272 C 208.6,570.25 778,718.25 817,1014.2509342977272 C 856,1310.25 491.2,1458.25 458,1754.2509342977273 C 424.8,2050.25 653,2198.25 651,2494.2509342977273 C 649,2790.25 445.8,3141.1 448,3234.2509342977273 C 450.2,3327.4 619.2,3014.85 662,2960" stroke="rgba(126, 199, 139, 1)" stroke-width="2"></path><path d="M 269,-160.74507426033097 C 380.8,-12.75 807.4,283.25 828,579.254925739669 C 848.6,875.25 362.2,1023.25 372,1319.254925739669 C 381.8,1615.25 839,1763.25 877,2059.254925739669 C 915,2355.25 598,2503.25 562,2799.254925739669 C 526,3095.25 687.4,3507.11 697,3539.254925739669 C 706.6,3571.4 627.4,3075.85 610,2960" stroke="rgba(126, 199, 139, 1)" stroke-width="2"></path><path d="M 620,-28.82095371568323 C 699.2,119.18 1063.4,415.18 1016,711.1790462843168 C 968.6,1007.18 441.6,1155.18 383,1451.1790462843169 C 324.4,1747.18 711.8,1895.18 723,2191.179046284317 C 734.2,2487.18 394.2,2635.18 439,2931.179046284317 C 483.8,3227.18 966.6,3665.41 947,3671.179046284317 C 927.4,3676.94 462.2,3102.24 341,2960" stroke="rgba(126, 199, 139, 1)" stroke-width="2"></path><path d="M 350,-368.12046423487146 C 473.2,-220.12 945,75.88 966,371.87953576512854 C 987,667.88 428,815.88 455,1111.8795357651286 C 482,1407.88 1153.8,1555.88 1101,1851.8795357651286 C 1048.2,2147.88 274,2295.88 191,2591.8795357651284 C 108,2887.88 648,3258.26 686,3331.8795357651284 C 724,3405.5 442,3034.38 381,2960" stroke="rgba(126, 199, 139, 1)" stroke-width="2"></path></g><defs><mask id="SvgjsMask1049"><rect width="1260" height="2960" fill="#ffffff"></rect></mask></defs></svg>