<svg xmlns="http://www.w3.org/2000/svg" version="1.1" xmlns:xlink="http://www.w3.org/1999/xlink" xmlns:svgjs="http://svgjs.dev/svgjs" width="500" height="1960" preserveAspectRatio="none" viewBox="0 0 500 1960"><g mask="url(&quot;#SvgjsMask1031&quot;)" fill="none"><rect width="500" height="1960" x="0" y="0" fill="rgba(61, 117, 48, 1)"></rect><path d="M 273,-104.5724239884234 C 229.4,-6.57 39.2,189.43 55,385.4275760115766 C 70.8,581.43 314.6,679.43 352,875.4275760115765 C 389.4,1071.43 239.6,1169.43 242,1365.4275760115765 C 244.4,1561.43 385.4,1659.43 364,1855.4275760115765 C 342.6,2051.43 119.8,2324.51 135,2345.4275760115765 C 150.2,2366.34 379,2037.09 440,1960" stroke="rgba(126, 199, 139, 1)" stroke-width="2"></path><path d="M 117,-932.6210956953017 C 147,-834.62 250,-638.62 267,-442.62109569530173 C 284,-246.62 171.4,-148.62 202,47.37890430469827 C 232.6,243.38 447.4,341.38 420,537.3789043046983 C 392.6,733.38 94,831.38 65,1027.3789043046982 C 36,1223.38 277.2,1330.85 275,1517.3789043046982 C 272.8,1703.9 98.2,1871.48 54,1960" stroke="rgba(126, 199, 139, 1)" stroke-width="2"></path><path d="M 206,-306.364474205371 C 242,-208.36 382,-12.36 386,183.63552579462902 C 390,379.64 226.6,477.64 226,673.6355257946291 C 225.4,869.64 380.6,967.64 383,1163.635525794629 C 385.4,1359.64 259.4,1457.64 238,1653.635525794629 C 216.6,1849.64 300.4,2082.36 276,2143.635525794629 C 251.6,2204.91 148,1996.73 116,1960" stroke="rgba(126, 199, 139, 1)" stroke-width="2"></path><path d="M 184,-123.15562057378719 C 228,-25.16 404,170.84 404,366.8443794262128 C 404,562.84 176.8,660.84 184,856.8443794262128 C 191.2,1052.84 428.8,1150.84 440,1346.8443794262128 C 451.2,1542.84 249.8,1640.84 240,1836.8443794262128 C 230.2,2032.84 419.8,2302.21 391,2326.844379426213 C 362.2,2351.48 155,2033.37 96,1960" stroke="rgba(126, 199, 139, 1)" stroke-width="2"></path><path d="M 146,-284.68153825456136 C 187,-186.68 331.2,9.32 351,205.3184617454386 C 370.8,401.32 233.8,499.32 245,695.3184617454386 C 256.2,891.32 416.8,989.32 407,1185.3184617454385 C 397.2,1381.32 208.6,1479.32 196,1675.3184617454385 C 183.4,1871.32 334.2,2108.38 344,2165.3184617454385 C 353.8,2222.25 264.8,2001.06 245,1960" stroke="rgba(126, 199, 139, 1)" stroke-width="2"></path></g><defs><mask id="SvgjsMask1031"><rect width="500" height="1960" fill="#ffffff"></rect></mask></defs></svg>