<svg xmlns="http://www.w3.org/2000/svg" version="1.1" xmlns:xlink="http://www.w3.org/1999/xlink" xmlns:svgjs="http://svgjs.dev/svgjs" width="500" height="3960" preserveAspectRatio="none" viewBox="0 0 500 3960"><g mask="url(&quot;#SvgjsMask1005&quot;)" fill="none"><rect width="500" height="3960" x="0" y="0" fill="rgba(61, 117, 48, 1)"></rect><path d="M 248,-867.2132168482188 C 285,-669.21 445.2,-273.21 433,122.78678315178117 C 420.8,518.79 206.8,716.79 187,1112.7867831517813 C 167.2,1508.79 356.8,1706.79 334,2102.786783151781 C 311.2,2498.79 80.6,2696.79 73,3092.786783151781 C 65.4,3488.79 276.6,3909.34 296,4082.786783151781 C 315.4,4256.23 195.2,3984.56 170,3960" stroke="rgba(126, 199, 139, 1)" stroke-width="2"></path><path d="M 184,-932.6341691462508 C 203.8,-734.63 309,-338.63 283,57.36583085374921 C 257,453.37 60.4,651.37 54,1047.3658308537492 C 47.6,1443.37 221.2,1641.37 251,2037.3658308537492 C 280.8,2433.37 192.2,2631.37 203,3027.3658308537492 C 213.8,3423.37 324.8,3830.84 305,4017.3658308537492 C 285.2,4203.89 144.2,3971.47 104,3960" stroke="rgba(126, 199, 139, 1)" stroke-width="2"></path><path d="M 240,-1559.8734534369023 C 250.8,-1361.87 325.8,-965.87 294,-569.8734534369023 C 262.2,-173.87 56.8,24.13 81,420.1265465630977 C 105.2,816.13 384.4,1014.13 415,1410.1265465630977 C 445.6,1806.13 254.8,2004.13 234,2400.1265465630977 C 213.2,2796.13 333.4,3078.15 311,3390.1265465630977 C 288.6,3702.1 159.8,3846.03 122,3960" stroke="rgba(126, 199, 139, 1)" stroke-width="2"></path><path d="M 89,-12.9405826613513 C 133.6,185.06 311,581.06 312,977.0594173386487 C 313,1373.06 80.6,1571.06 94,1967.0594173386487 C 107.4,2363.06 353.2,2561.06 379,2957.059417338649 C 404.8,3353.06 233,3551.06 223,3947.059417338649 C 213,4343.06 331.4,4934.47 329,4937.059417338649 C 326.6,4939.65 234.6,4155.41 211,3960" stroke="rgba(126, 199, 139, 1)" stroke-width="2"></path><path d="M 312,-793.3243065034235 C 260,-595.32 24.6,-199.32 52,196.67569349657657 C 79.4,592.68 422.2,790.68 449,1186.6756934965765 C 475.8,1582.68 190.8,1780.68 186,2176.6756934965765 C 181.2,2572.68 444.6,2770.68 425,3166.6756934965765 C 405.4,3562.68 104.4,3998.01 88,4156.675693496577 C 71.6,4315.34 292,3999.34 343,3960" stroke="rgba(126, 199, 139, 1)" stroke-width="2"></path><path d="M 235,-1039.9841199067528 C 276.4,-841.98 444.6,-445.98 442,-49.984119906752724 C 439.4,346.02 241.2,544.02 222,940.0158800932472 C 202.8,1336.02 375.8,1534.02 346,1930.0158800932472 C 316.2,2326.02 68.4,2524.02 73,2920.0158800932472 C 77.6,3316.02 353,3702.02 369,3910.0158800932472 C 385,4118.01 196.2,3950 153,3960" stroke="rgba(126, 199, 139, 1)" stroke-width="2"></path><path d="M 279,-544.7556819237075 C 240.4,-346.76 79.8,49.24 86,445.2443180762926 C 92.2,841.24 303.8,1039.24 310,1435.2443180762925 C 316.2,1831.24 124,2029.24 117,2425.2443180762925 C 110,2821.24 256.6,3019.24 275,3415.2443180762925 C 293.4,3811.24 177,4296.29 209,4405.244318076293 C 241,4514.2 389.8,4049.05 435,3960" stroke="rgba(126, 199, 139, 1)" stroke-width="2"></path></g><defs><mask id="SvgjsMask1005"><rect width="500" height="3960" fill="#ffffff"></rect></mask></defs></svg>