<svg xmlns="http://www.w3.org/2000/svg" version="1.1" xmlns:xlink="http://www.w3.org/1999/xlink" xmlns:svgjs="http://svgjs.dev/svgjs" width="1440" height="2000" preserveAspectRatio="none" viewBox="0 0 1440 2000"><g mask="url(&quot;#SvgjsMask1586&quot;)" fill="none"><rect width="1440" height="2000" x="0" y="0" fill="url(&quot;#SvgjsLinearGradient1587&quot;)"></rect><path d="M0 0L464.82 0L0 989.23z" fill="rgba(255, 255, 255, .1)"></path><path d="M0 989.23L464.82 0L623.06 0L0 1278.45z" fill="rgba(255, 255, 255, .075)"></path><path d="M0 1278.45L623.06 0L695.55 0L0 1350.03z" fill="rgba(255, 255, 255, .05)"></path><path d="M0 1350.03L695.55 0L831.5899999999999 0L0 1466.07z" fill="rgba(255, 255, 255, .025)"></path><path d="M1440 2000L1051.92 2000L1440 1520.43z" fill="rgba(0, 0, 0, .1)"></path><path d="M1440 1520.43L1051.92 2000L635.24 2000L1440 1158.8400000000001z" fill="rgba(0, 0, 0, .075)"></path><path d="M1440 1158.8400000000001L635.24 2000L241.32999999999998 2000L1440 1109.5200000000002z" fill="rgba(0, 0, 0, .05)"></path><path d="M1440 1109.52L241.32999999999993 2000L124.16999999999993 2000L1440 637.1099999999999z" fill="rgba(0, 0, 0, .025)"></path></g><defs><mask id="SvgjsMask1586"><rect width="1440" height="2000" fill="#ffffff"></rect></mask><linearGradient x1="50%" y1="0%" x2="50%" y2="100%" gradientUnits="userSpaceOnUse" id="SvgjsLinearGradient1587"><stop stop-color="rgba(7, 33, 61, 1)" offset="0"></stop><stop stop-color="rgba(60, 97, 145, 1)" offset="1"></stop></linearGradient></defs></svg>